<svg xmlns="http://www.w3.org/2000/svg" xmlns:xlink="http://www.w3.org/1999/xlink" viewBox="0 0 1443.52 59.89"><defs><style>.cls-1{fill:url(#linear-gradient);}.cls-2{fill:url(#linear-gradient-2);}.cls-3{fill:url(#linear-gradient-3);}</style><linearGradient id="linear-gradient" x1="721.76" y1="0.35" x2="721.76" y2="56.71" gradientTransform="translate(1443.52 59.89) rotate(180)" gradientUnits="userSpaceOnUse"><stop offset="0" stop-color="#6a0011"/><stop offset="0.13" stop-color="#700413"/><stop offset="0.31" stop-color="#820f18"/><stop offset="0.51" stop-color="#9e2121"/><stop offset="0.74" stop-color="#c73b2e"/><stop offset="0.98" stop-color="#f95b3d"/><stop offset="1" stop-color="#ff5f3f"/></linearGradient><linearGradient id="linear-gradient-2" x1="721.76" y1="44.98" x2="721.76" y2="8.87" gradientTransform="translate(1443.52 59.89) rotate(180)" gradientUnits="userSpaceOnUse"><stop offset="0" stop-color="#ffb815"/><stop offset="1" stop-color="#6a2000"/></linearGradient><linearGradient id="linear-gradient-3" x1="721.76" y1="23.85" x2="721.76" y2="54.02" gradientUnits="userSpaceOnUse"><stop offset="0" stop-color="#4f3938"/><stop offset="1" stop-color="#2c2756"/></linearGradient></defs><g id="Layer_2" data-name="Layer 2"><g id="Layer_5" data-name="Layer 5"><path class="cls-1" d="M240.59,0c65.8,0,100.73,5.23,131.54,9.84C401.41,14.22,426.69,18,481.18,18S561,14.22,590.23,9.84C621,5.23,656,0,721.77,0S822.5,5.23,853.31,9.84c29.27,4.38,54.55,8.16,109,8.16s79.78-3.78,109.05-8.16C1102.21,5.23,1137.14,0,1202.94,0s100.72,5.23,131.54,9.84c29.27,4.38,54.55,8.16,109,8.16V59.89H0V18c54.49,0,79.77-3.78,109.05-8.16C139.86,5.23,174.79,0,240.59,0Z"/><path class="cls-2" d="M240.59,25c63.38,0,95.59-3.21,126.75-6.32C396.61,15.76,424.27,13,481.18,13S565.75,15.76,595,18.68C626.17,21.79,658.39,25,721.77,25s95.59-3.21,126.74-6.32C877.79,15.76,905.44,13,962.35,13s84.57,2.76,113.84,5.68c31.15,3.11,63.37,6.32,126.75,6.32s95.59-3.21,126.74-6.32C1359,15.76,1386.61,13,1443.52,13V59.89H0V13c56.91,0,84.57,2.76,113.84,5.68C145,21.79,177.21,25,240.59,25Z"/><path class="cls-3" d="M240.59,20.05c61.48,0,92.74,1.56,123,3.07s58.82,2.93,117.63,2.93,87.38-1.43,117.63-2.93,61.48-3.07,123-3.07,92.73,1.56,123,3.07,58.81,2.93,117.62,2.93,87.38-1.43,117.63-2.93,61.48-3.07,123-3.07,92.73,1.56,123,3.07,58.82,2.93,117.63,2.93V59.89H0V26.05c58.81,0,87.38-1.43,117.63-2.93S179.11,20.05,240.59,20.05Z"/></g></g></svg>