<svg xmlns="http://www.w3.org/2000/svg" xmlns:xlink="http://www.w3.org/1999/xlink" viewBox="0 0 1443.52 170"><defs><style>.cls-1{fill:url(#linear-gradient);}.cls-2{fill:url(#linear-gradient-2);}.cls-3{fill:url(#linear-gradient-3);}</style><linearGradient id="linear-gradient" x1="721.76" x2="721.76" y2="170.19" gradientUnits="userSpaceOnUse"><stop offset="0" stop-color="#c458b9"/><stop offset="0.4" stop-color="#5a066f"/><stop offset="0.56" stop-color="#52006a"/><stop offset="0.62" stop-color="#58056e"/><stop offset="0.71" stop-color="#6a127b"/><stop offset="0.8" stop-color="#86298f"/><stop offset="0.91" stop-color="#ae47aa"/><stop offset="1" stop-color="#d767c7"/></linearGradient><linearGradient id="linear-gradient-2" x1="721.76" y1="10.24" x2="721.76" y2="155.14" gradientUnits="userSpaceOnUse"><stop offset="0" stop-color="#52bbff"/><stop offset="0.22" stop-color="#3ca0ff"/><stop offset="0.43" stop-color="#2b8cff"/><stop offset="0.61" stop-color="#2a8bff"/><stop offset="0.74" stop-color="#3da2ff"/><stop offset="0.9" stop-color="#4fb7ff"/><stop offset="1" stop-color="#55beff"/></linearGradient><linearGradient id="linear-gradient-3" x1="721.76" y1="33" x2="721.76" y2="135" gradientUnits="userSpaceOnUse"><stop offset="0" stop-color="#4f3938"/><stop offset="1" stop-color="#2c2756"/></linearGradient></defs><g id="Layer_2" data-name="Layer 2"><g id="Layer_5" data-name="Layer 5"><path class="cls-1" d="M1202.93,170c-65.8,0-100.73-5.23-131.54-9.84-29.27-4.38-54.56-8.16-109.05-8.16s-79.77,3.78-109.05,8.16c-30.81,4.61-65.74,9.84-131.54,9.84S621,164.77,590.21,160.16c-29.27-4.38-54.55-8.16-109-8.16s-79.77,3.78-109,8.16c-30.81,4.61-65.74,9.84-131.54,9.84s-100.72-5.23-131.53-9.84C79.77,155.78,54.49,152,0,152V18c65.8,0,100.73-5.23,131.54-9.84C160.81,3.78,186.09,0,240.58,0s79.78,3.78,109,8.16C380.44,12.77,415.37,18,481.17,18s100.72-5.23,131.54-9.84C642,3.78,667.26,0,721.75,0s79.78,3.78,109,8.16C861.61,12.77,896.54,18,962.34,18s100.73-5.23,131.54-9.84c29.28-4.38,54.56-8.16,109-8.16s79.78,3.78,109,8.16c30.81,4.61,65.74,9.84,131.54,9.84V152c-54.49,0-79.77,3.78-109,8.16C1303.66,164.77,1268.73,170,1202.93,170Z"/><path class="cls-2" d="M1202.93,145c-63.38,0-95.59,3.21-126.75,6.32-29.27,2.92-56.93,5.68-113.84,5.68s-84.57-2.76-113.84-5.68c-31.15-3.11-63.37-6.32-126.75-6.32s-95.59,3.21-126.74,6.32c-29.28,2.92-56.93,5.68-113.84,5.68s-84.57-2.76-113.84-5.68C336.18,148.21,304,145,240.58,145s-95.59,3.21-126.74,6.32C84.56,154.24,56.91,157,0,157V10c63.38,0,95.59,3.21,126.74,6.32C156,19.24,183.67,22,240.58,22s84.57-2.76,113.84-5.68C385.57,13.21,417.79,10,481.17,10s95.59,3.21,126.74,6.32C637.19,19.24,664.84,22,721.75,22s84.57-2.76,113.84-5.68C866.75,13.21,899,10,962.34,10s95.6,3.21,126.75,6.32C1118.36,19.24,1146,22,1202.93,22s84.57-2.76,113.84-5.68c31.16-3.11,63.37-6.32,126.75-6.32V157c-56.91,0-84.57-2.76-113.84-5.68C1298.53,148.21,1266.31,145,1202.93,145Z"/><path class="cls-3" d="M1202.93,135c-61.48,0-92.73-1.56-123-3.07S1021.16,129,962.34,129s-87.38,1.42-117.63,2.93-61.48,3.07-123,3.07-92.73-1.56-123-3.07S540,129,481.17,129s-87.38,1.42-117.63,2.93-61.48,3.07-123,3.07-92.73-1.56-123-3.07S58.81,129,0,129V39c61.48,0,92.73-1.56,123-3.07S181.77,33,240.58,33,328,34.42,358.21,35.93,419.69,39,481.17,39s92.73-1.56,123-3.07S662.94,33,721.75,33s87.38,1.42,117.63,2.93S900.86,39,962.34,39s92.74-1.56,123-3.07S1144.12,33,1202.93,33s87.38,1.42,117.63,2.93S1382,39,1443.52,39v90c-58.81,0-87.38,1.42-117.63,2.93S1264.41,135,1202.93,135Z"/></g></g></svg>