<svg xmlns="http://www.w3.org/2000/svg" xmlns:xlink="http://www.w3.org/1999/xlink" viewBox="0 0 1443.52 59.89"><defs><style>.cls-1{fill:url(#linear-gradient);}</style><linearGradient id="linear-gradient" x1="721.76" y1="3.88" x2="721.76" y2="49.89" gradientUnits="userSpaceOnUse"><stop offset="0" stop-color="#52006a"/><stop offset="0.14" stop-color="#58056e"/><stop offset="0.33" stop-color="#6a127b"/><stop offset="0.55" stop-color="#86298f"/><stop offset="0.79" stop-color="#ae47aa"/><stop offset="1" stop-color="#d767c7"/></linearGradient></defs><g id="Layer_2" data-name="Layer 2"><g id="Layer_5" data-name="Layer 5"><path class="cls-1" d="M1202.93,59.89c-65.8,0-100.73-5.22-131.54-9.83-29.27-4.38-54.56-8.17-109.05-8.17s-79.77,3.79-109.05,8.17c-30.81,4.61-65.74,9.83-131.54,9.83S621,54.67,590.21,50.06c-29.27-4.38-54.55-8.17-109-8.17s-79.77,3.79-109,8.17c-30.81,4.61-65.74,9.83-131.54,9.83s-100.72-5.22-131.53-9.83C79.77,45.68,54.49,41.89,0,41.89V0H1443.52V41.89c-54.49,0-79.77,3.79-109,8.17C1303.66,54.67,1268.73,59.89,1202.93,59.89Z"/></g></g></svg>