<svg xmlns="http://www.w3.org/2000/svg" xmlns:xlink="http://www.w3.org/1999/xlink" viewBox="0 0 1443.52 39.84"><defs><style>.cls-1{fill:url(#linear-gradient);}</style><linearGradient id="linear-gradient" x1="721.76" x2="721.76" y2="39.84" gradientUnits="userSpaceOnUse"><stop offset="0" stop-color="#4f3938"/><stop offset="1" stop-color="#2c2756"/></linearGradient></defs><g id="Layer_2" data-name="Layer 2"><g id="Layer_5" data-name="Layer 5"><path class="cls-1" d="M1202.93,39.84c-61.48,0-92.73-1.56-123-3.06s-58.81-2.94-117.63-2.94S875,35.27,844.71,36.78s-61.48,3.06-123,3.06-92.73-1.56-123-3.06S540,33.84,481.17,33.84s-87.38,1.43-117.63,2.94-61.48,3.06-123,3.06-92.73-1.56-123-3.06S58.81,33.84,0,33.84V0H1443.52V33.84c-58.81,0-87.38,1.43-117.63,2.94S1264.41,39.84,1202.93,39.84Z"/></g></g></svg>