<svg xmlns="http://www.w3.org/2000/svg" xmlns:xlink="http://www.w3.org/1999/xlink" viewBox="0 0 1443.52 46.89"><defs><style>.cls-1{fill:url(#linear-gradient);}</style><linearGradient id="linear-gradient" x1="721.76" y1="-42.53" x2="721.76" y2="53.25" gradientUnits="userSpaceOnUse"><stop offset="0" stop-color="#52bbff"/><stop offset="0.22" stop-color="#3ca0ff"/><stop offset="0.43" stop-color="#2b8cff"/><stop offset="0.61" stop-color="#2a8bff"/><stop offset="0.74" stop-color="#3da2ff"/><stop offset="0.9" stop-color="#4fb7ff"/><stop offset="1" stop-color="#55beff"/></linearGradient></defs><g id="Layer_2" data-name="Layer 2"><g id="Layer_5" data-name="Layer 5"><path class="cls-1" d="M1202.93,34.89c-63.38,0-95.59,3.22-126.75,6.32-29.27,2.92-56.93,5.68-113.84,5.68s-84.57-2.76-113.84-5.68c-31.15-3.1-63.37-6.32-126.75-6.32S626.16,38.11,595,41.21c-29.28,2.92-56.93,5.68-113.84,5.68s-84.57-2.76-113.84-5.68c-31.15-3.1-63.37-6.32-126.75-6.32S145,38.11,113.84,41.21C84.56,44.13,56.91,46.89,0,46.89V0H1443.52V46.89c-56.91,0-84.57-2.76-113.84-5.68C1298.53,38.11,1266.31,34.89,1202.93,34.89Z"/></g></g></svg>