<svg xmlns="http://www.w3.org/2000/svg" xmlns:xlink="http://www.w3.org/1999/xlink" viewBox="0 0 1443.52 59.89"><defs><style>.cls-1{fill:url(#linear-gradient);}.cls-2{fill:url(#linear-gradient-2);}.cls-3{fill:url(#linear-gradient-3);}</style><linearGradient id="linear-gradient" x1="721.76" y1="3.88" x2="721.76" y2="49.89" gradientUnits="userSpaceOnUse"><stop offset="0" stop-color="#52006a"/><stop offset="0.14" stop-color="#58056e"/><stop offset="0.33" stop-color="#6a127b"/><stop offset="0.55" stop-color="#86298f"/><stop offset="0.79" stop-color="#ae47aa"/><stop offset="1" stop-color="#d767c7"/></linearGradient><linearGradient id="linear-gradient-2" x1="721.76" y1="-42.53" x2="721.76" y2="53.25" gradientUnits="userSpaceOnUse"><stop offset="0" stop-color="#52bbff"/><stop offset="0.22" stop-color="#3ca0ff"/><stop offset="0.43" stop-color="#2b8cff"/><stop offset="0.61" stop-color="#2a8bff"/><stop offset="0.74" stop-color="#3da2ff"/><stop offset="0.9" stop-color="#4fb7ff"/><stop offset="1" stop-color="#55beff"/></linearGradient><linearGradient id="linear-gradient-3" x1="721.76" x2="721.76" y2="39.84" gradientUnits="userSpaceOnUse"><stop offset="0" stop-color="#4f3938"/><stop offset="1" stop-color="#2c2756"/></linearGradient></defs><g id="Layer_2" data-name="Layer 2"><g id="Layer_5" data-name="Layer 5"><path class="cls-1" d="M1202.93,59.89c-65.8,0-100.73-5.22-131.54-9.83-29.27-4.38-54.56-8.17-109.05-8.17s-79.77,3.79-109.05,8.17c-30.81,4.61-65.74,9.83-131.54,9.83S621,54.67,590.21,50.06c-29.27-4.38-54.55-8.17-109-8.17s-79.77,3.79-109,8.17c-30.81,4.61-65.74,9.83-131.54,9.83s-100.72-5.22-131.53-9.83C79.77,45.68,54.49,41.89,0,41.89V0H1443.52V41.89c-54.49,0-79.77,3.79-109,8.17C1303.66,54.67,1268.73,59.89,1202.93,59.89Z"/><path class="cls-2" d="M1202.93,34.89c-63.38,0-95.59,3.22-126.75,6.32-29.27,2.92-56.93,5.68-113.84,5.68s-84.57-2.76-113.84-5.68c-31.15-3.1-63.37-6.32-126.75-6.32S626.16,38.11,595,41.21c-29.28,2.92-56.93,5.68-113.84,5.68s-84.57-2.76-113.84-5.68c-31.15-3.1-63.37-6.32-126.75-6.32S145,38.11,113.84,41.21C84.56,44.13,56.91,46.89,0,46.89V0H1443.52V46.89c-56.91,0-84.57-2.76-113.84-5.68C1298.53,38.11,1266.31,34.89,1202.93,34.89Z"/><path class="cls-3" d="M1202.93,39.84c-61.48,0-92.73-1.56-123-3.06s-58.81-2.94-117.63-2.94S875,35.27,844.71,36.78s-61.48,3.06-123,3.06-92.73-1.56-123-3.06S540,33.84,481.17,33.84s-87.38,1.43-117.63,2.94-61.48,3.06-123,3.06-92.73-1.56-123-3.06S58.81,33.84,0,33.84V0H1443.52V33.84c-58.81,0-87.38,1.43-117.63,2.94S1264.41,39.84,1202.93,39.84Z"/></g></g></svg>